{"title":"Oldboy 2013 BDRiP AC3-5 1 XviD-AXED","uid":9600622,"size":1479859478,"categoryP":"video","categoryS":"movies","magnet":"?xt=urn:btih:313df1ada2ccaec51c721621ff10855a9ec74211&amp;dn=Oldboy+2013+BDRiP+AC3-5+1+XviD-AXED&amp;tr=udp%3A%2F%2Ftracker.openbittorrent.com%3A80&amp;tr=udp%3A%2F%2Fopen.demonii.com%3A1337&amp;tr=udp%3A%2F%2Ftracker.coppersurfer.tk%3A6969&amp;tr=udp%3A%2F%2Fexodus.desync.com%3A6969","seeders":1,"leechers":0,"uploader":"srkfan","files":4,"time":1392103460,"description":" &lt;a href=&quot;http://lookpic.com/O/i2/1769/PeydHg7u.jpeg&quot; rel=&quot;nofollow&quot; target=&quot;_NEW&quot;&gt;http://lookpic.com/O/i2/1769/PeydHg7u.jpeg&lt;/a&gt;\n\nIMDB: &lt;a href=&quot;\nhttp://www.imdb.com/title/tt1321511&quot; rel=&quot;nofollow&quot; target=&quot;_NEW&quot;&gt;\nhttp://www.imdb.com/title/tt1321511&lt;/a&gt;\n\nPLOT INFO:\nObsessed with vengeance, a man sets out to find out why he was kidnapped and locked into solitary confinement for 20 years without reason\n\nMedia Info:\nGeneral\nComplete name: Oldboy.2013.BDRiP.AC3-5.1.XviD-AXED.avi\nFormat: AVI\nFormat/Info: Audio Video Interleave\nFile size: 1.37 GiB\nDuration: 1h 43mn\nOverall bit rate: 1 888 Kbps\n\nVideo\nID: 0\nFormat: MPEG-4 Visual\nFormat profile: Advanced Simple@L5\nFormat settings, BVOP: 2\nFormat settings, QPel: No\nFormat settings, GMC: No warppoints\nFormat settings, Matrix: Default (H.263)\nMuxing mode: Packed bitstream\nCodec ID: XVID\nCodec ID/Hint: XviD\nDuration: 1h 43mn\nBit rate: 1 432 Kbps\nWidth: 720 pixels\nHeight: 304 pixels\nDisplay aspect ratio: 2.35:1\nFrame rate: 23.976 fps\nColor space: YUV\nChroma subsampling: 4:2:0\nBit depth: 8 bits\nScan type: Progressive\nCompression mode: Lossy\nBits/(Pixel*Frame): 0.273\nStream size: 1.04 GiB (76%)\nWriting library: XviD 64\n\nAudio\nID: 1\nFormat: AC-3\nFormat/Info: Audio Coding 3\nMode extension: CM (complete main)\nFormat settings, Endianness: Big\nCodec ID: 2000\nDuration: 1h 43mn\nBit rate mode: Constant\nBit rate: 448 Kbps\nChannel(s): 6 channels\nChannel positions: Front: L C R, Side: L R, LFE\nSampling rate: 48.0 KHz\nBit depth: 16 bits\nCompression mode: Lossy\nStream size: 333 MiB (24%)\nAlignment: Aligned on interleaves\nInterleave, duration: 64 ms (1.53 video frames)\nInterleave, preload duration: 192 ms\nTitle: ob13\n\nSOURCE:\nRetail RA Blu-Ray DISC\n\nNOTES:\nHere's a nice xvid encode from the retail blu of the remake from Spike Lee\n\nAXED! Because you love us\n\n &lt;a href=&quot;\nhttp://lookpic.com/O/i2/619/W4XxE5Gy.png&quot; rel=&quot;nofollow&quot; target=&quot;_NEW&quot;&gt;\nhttp://lookpic.com/O/i2/619/W4XxE5Gy.png&lt;/a&gt; &lt;a href=&quot;\nhttp://lookpic.com/O/i2/1010/x1536Na3.png&quot; rel=&quot;nofollow&quot; target=&quot;_NEW&quot;&gt;\nhttp://lookpic.com/O/i2/1010/x1536Na3.png&lt;/a&gt; &lt;a href=&quot;\nhttp://lookpic.com/O/i2/1591/4eZOseT.png&quot; rel=&quot;nofollow&quot; target=&quot;_NEW&quot;&gt;\nhttp://lookpic.com/O/i2/1591/4eZOseT.png&lt;/a&gt;\n","torrent":{"xt":"urn:btih:313df1ada2ccaec51c721621ff10855a9ec74211","amp;dn":"Oldboy+2013+BDRiP+AC3-5+1+XviD-AXED","amp;tr":["udp%3A%2F%2Ftracker.openbittorrent.com%3A80","udp%3A%2F%2Fopen.demonii.com%3A1337","udp%3A%2F%2Ftracker.coppersurfer.tk%3A6969","udp%3A%2F%2Fexodus.desync.com%3A6969"],"infoHash":"313df1ada2ccaec51c721621ff10855a9ec74211","infoHashBuffer":{"type":"Buffer","data":[49,61,241,173,162,204,174,197,28,114,22,33,255,16,133,90,158,199,66,17]},"announce":[],"urlList":[]}}